<svg xmlns="http://www.w3.org/2000/svg" xmlns:xlink="http://www.w3.org/1999/xlink" width="490.2" height="193.9" viewBox="41.2 39 490.2 193.9"><title></title><style type="text/css">
#g1 circle.pindot {fill: none;stroke: none;pointer-events: fill;}#g1 rect, #g1 circle, #g1 ellipse, #g1 polyline, #g1 line, #g1 polygon, #g1 path {shape-rendering: crispEdges;}path, polyline, polygon {stroke-linejoin:round;}
rect, circle, ellipse, polyline, line, polygon, path {shape-rendering:crispEdges;}
</style>
<rect x="41.2" y="39" width="490.2" height="193.9" fill="#FFFFFF" stroke="none"/><g id="g1" c_spiceCmd="null" c_para="Prefix Start`1`" importFlag="0" c_portOfADImportHack="" c_transformList="" xmlns="http://www.w3.org/2000/svg"><g c_origin="345,105" c_para="package`SOIC-8_150MIL`BOM_Supplier``BOM_Manufacturer`TI`BOM_Manufacturer Part`SN65HVD230DR`BOM_LCSC Assembly`Yes`image`//image.lceda.cn/szlcsc/C12084.jpg`Contributor`LCSC`BOM_Supplier Part`C12084`spicePre`U`BOM_Mounted`Yes`" c_partid="part_import_gge233" id="gge233" c_shapetype="group" c_etype="pinpart" ><g c_partid="part_annotation" id="gge235" ><text c_note="note_name" x="315" y="58.578125" fill="#000000" font-family="Arial" font-size="7pt" font-weight="" font-style="" dominant-baseline="" text-anchor="start"  >SN65HVD230</text></g><g c_partid="part_annotation" id="gge237" display="none"><text c_note="note_pre" x="339.0390625" y="53" fill="#000000" font-family="Arial" font-size="7pt" font-weight="" font-style="" dominant-baseline="" text-anchor="start"  >U1</text></g><rect id="gge239" x="315" y="65" rx="1" ry="1" width="60" height="70" stroke="#000000" stroke-width="1" fill="none"   /><g c_partid="part_pin" c_etype="pinpart"  c_show="show"  c_elec="0" c_spicepin="1" c_origin="295,75" id="gge240" c_rotation="180"><circle c_pindot="true" class="pindot" cx="295" cy="75" r="2" fill="#4F4F4F" stroke="none" /><path d="M 295 75 h 20" fill="none" stroke="#000000" stroke-width="1"/><text x="318" y="78" font-family="Verdana" font-size="7pt" fill="#000000" text-anchor="start"   >D</text><text x="309" y="74" font-family="Verdana" font-size="7pt" fill="#000000" text-anchor="end"   >1</text><circle cx="312" cy="75" r="3" stroke="#000000" fill="none" stroke-width="1" display="none" /><path d="M 315 78 L 318 75 L 315 72" fill="none" stroke="#000000" stroke-width="1"  display="none" /></g><g c_partid="part_pin" c_etype="pinpart"  c_show="show"  c_elec="4" c_spicepin="2" c_origin="395,125" id="gge247" c_rotation="0"><circle c_pindot="true" class="pindot" cx="395" cy="125" r="2" fill="#4F4F4F" stroke="none" /><path d="M 395 125 h -20" fill="none" stroke="#000000" stroke-width="1"/><text x="372" y="128" font-family="Verdana" font-size="7pt" fill="#000000" text-anchor="end"   >GND</text><text x="381" y="124" font-family="Verdana" font-size="7pt" fill="#000000" text-anchor="start"   >2</text><circle cx="378" cy="125" r="3" stroke="#000000" fill="none" stroke-width="1" display="none" /><path d="M 375 122 L 372 125 L 375 128" fill="none" stroke="#000000" stroke-width="1"  display="none" /></g><g c_partid="part_pin" c_etype="pinpart"  c_show="show"  c_elec="4" c_spicepin="3" c_origin="295,125" id="gge254" c_rotation="180"><circle c_pindot="true" class="pindot" cx="295" cy="125" r="2" fill="#4F4F4F" stroke="none" /><path d="M 295 125 h 20" fill="none" stroke="#000000" stroke-width="1"/><text x="318" y="128" font-family="Verdana" font-size="7pt" fill="#000000" text-anchor="start"   >VCC</text><text x="309" y="124" font-family="Verdana" font-size="7pt" fill="#000000" text-anchor="end"   >3</text><circle cx="312" cy="125" r="3" stroke="#000000" fill="none" stroke-width="1" display="none" /><path d="M 315 128 L 318 125 L 315 122" fill="none" stroke="#000000" stroke-width="1"  display="none" /></g><g c_partid="part_pin" c_etype="pinpart"  c_show="show"  c_elec="2" c_spicepin="4" c_origin="295,85" id="gge261" c_rotation="180"><circle c_pindot="true" class="pindot" cx="295" cy="85" r="2" fill="#4F4F4F" stroke="none" /><path d="M 295 85 h 20" fill="none" stroke="#000000" stroke-width="1"/><text x="318" y="88" font-family="Verdana" font-size="7pt" fill="#000000" text-anchor="start"   >R</text><text x="309" y="84" font-family="Verdana" font-size="7pt" fill="#000000" text-anchor="end"   >4</text><circle cx="312" cy="85" r="3" stroke="#000000" fill="none" stroke-width="1" display="none" /><path d="M 315 88 L 318 85 L 315 82" fill="none" stroke="#000000" stroke-width="1"  display="none" /></g><g c_partid="part_pin" c_etype="pinpart"  c_show="show"  c_elec="2" c_spicepin="2" c_origin="395,105" id="gge268" c_rotation="0"><circle c_pindot="true" class="pindot" cx="395" cy="105" r="2" fill="#4F4F4F" stroke="none" /><path d="M 395 105 h -20" fill="none" stroke="#000000" stroke-width="1"/><text x="372" y="108" font-family="Verdana" font-size="7pt" fill="#000000" text-anchor="end"   >VREF</text><text x="381" y="104" font-family="Verdana" font-size="7pt" fill="#000000" text-anchor="start"   >2</text><circle cx="378" cy="105" r="3" stroke="#000000" fill="none" stroke-width="1" display="none" /><path d="M 375 102 L 372 105 L 375 108" fill="none" stroke="#000000" stroke-width="1"  display="none" /></g><g c_partid="part_pin" c_etype="pinpart"  c_show="show"  c_elec="3" c_spicepin="6" c_origin="395,85" id="gge275" c_rotation="0"><circle c_pindot="true" class="pindot" cx="395" cy="85" r="2" fill="#4F4F4F" stroke="none" /><path d="M 395 85 h -20" fill="none" stroke="#000000" stroke-width="1"/><text x="372" y="88" font-family="Verdana" font-size="7pt" fill="#000000" text-anchor="end"   >CANL</text><text x="381" y="84" font-family="Verdana" font-size="7pt" fill="#000000" text-anchor="start"   >6</text><circle cx="378" cy="85" r="3" stroke="#000000" fill="none" stroke-width="1" display="none" /><path d="M 375 82 L 372 85 L 375 88" fill="none" stroke="#000000" stroke-width="1"  display="none" /></g><g c_partid="part_pin" c_etype="pinpart"  c_show="show"  c_elec="3" c_spicepin="7" c_origin="395,75" id="gge282" c_rotation="0"><circle c_pindot="true" class="pindot" cx="395" cy="75" r="2" fill="#4F4F4F" stroke="none" /><path d="M 395 75 h -20" fill="none" stroke="#000000" stroke-width="1"/><text x="372" y="78" font-family="Verdana" font-size="7pt" fill="#000000" text-anchor="end"   >CANH</text><text x="381" y="74" font-family="Verdana" font-size="7pt" fill="#000000" text-anchor="start"   >7</text><circle cx="378" cy="75" r="3" stroke="#000000" fill="none" stroke-width="1" display="none" /><path d="M 375 72 L 372 75 L 375 78" fill="none" stroke="#000000" stroke-width="1"  display="none" /></g><g c_partid="part_pin" c_etype="pinpart"  c_show="show"  c_elec="0" c_spicepin="8" c_origin="295,105" id="gge289" c_rotation="180"><circle c_pindot="true" class="pindot" cx="295" cy="105" r="2" fill="#4F4F4F" stroke="none" /><path d="M 295 105 h 20" fill="none" stroke="#000000" stroke-width="1"/><text x="318" y="108" font-family="Verdana" font-size="7pt" fill="#000000" text-anchor="start"   >RS</text><text x="309" y="104" font-family="Verdana" font-size="7pt" fill="#000000" text-anchor="end"   >8</text><circle cx="312" cy="105" r="3" stroke="#000000" fill="none" stroke-width="1" display="none" /><path d="M 315 108 L 318 105 L 315 102" fill="none" stroke="#000000" stroke-width="1"  display="none" /></g></g><g c_partid="part_netLabel_gnD" c_etype="pinpart" c_origin="405,140" id="gge365" c_shapetype="group" c_rotation="0"><circle c_pindot="true" class="pindot" cx="405" cy="140" r="2" fill="#4F4F4F" stroke="none" /><text x="392" y="166" font-family="Times New Roman" font-size="9pt" fill="#000000" text-anchor="start"  display="none">GND</text><polyline points="405 150 405 140" stroke="#000000" id="gge368" stroke-width="1"   fill="none" stroke-linecap="round" /><polyline points="396 150 414 150" stroke="#000000" id="gge369" stroke-width="1"   fill="none" stroke-linecap="round" /><polyline points="399 152 411 152" stroke="#000000" id="gge370" stroke-width="1"   fill="none" stroke-linecap="round" /><polyline points="402 154 408 154" stroke="#000000" id="gge371" stroke-width="1"   fill="none" stroke-linecap="round" /><polyline points="404 156 406 156" stroke="#000000" id="gge372" stroke-width="1"   fill="none" stroke-linecap="round" /></g><polyline c_etype="wire" c_shapetype="line" points="405 140 405 125 395 125" stroke="#000000" id="gge381" stroke-width="1"   fill="none" stroke-linecap="round" /><g c_partid="part_netLabel_VCC" c_etype="pinpart" c_origin="285,140" id="gge417" c_shapetype="group" c_rotation="180"><circle c_pindot="true" class="pindot" cx="285" cy="140" r="2" fill="#4F4F4F" stroke="none" /><text x="297.15" y="159.88" font-family="Arial" font-size="7pt" fill="#000000" text-anchor="end"  >3.3V</text><polyline points="285 150 285 140" stroke="#000000" id="gge420" stroke-width="1"   fill="none" stroke-linecap="round" /><polyline points="290 150 280 150" stroke="#000000" id="gge421" stroke-width="1"   fill="none" stroke-linecap="round" /></g><polyline c_etype="wire" c_shapetype="line" points="285 140 285 125 295 125" stroke="#000000" id="gge430" stroke-width="1"   fill="none" stroke-linecap="round" /><g c_origin="440,115" c_para="package`AXIAL-0.3`nameAlias`Value(&#x3a9;)`BOM_Manufacturer Part`?`spicePre`R`spiceSymbolName`Res_AXIAL-0.3(1/8W)_EU`" c_partid="part_import_gge431" id="gge431" c_shapetype="group" c_etype="pinpart" c_rotation="90"><g c_partid="part_annotation" id="gge433" ><text c_note="note_name" x="446" y="127.34375" fill="#000000" font-family="Arial" font-size="7pt" font-weight="" font-style="" dominant-baseline="" text-anchor="start"  >120</text></g><g c_partid="part_annotation" id="gge435" ><text c_note="note_pre" x="446.0078125" y="118.2265625" fill="#000000" font-family="Arial" font-size="7pt" font-weight="" font-style="" dominant-baseline="" text-anchor="start"  >R1</text></g><rect id="gge437" x="436" y="105"   width="8" height="20" stroke="#000000" stroke-width="1" fill="none"   /><g c_partid="part_pin" c_etype="pinpart"  c_show="show"  c_elec="0" c_spicepin="2" c_origin="440,95" id="gge438" c_rotation="90"><circle c_pindot="true" class="pindot" cx="440" cy="95" r="2" fill="#4F4F4F" stroke="none" /><path d="M 440 105 v -10" fill="none" stroke="#000000" stroke-width="1"/><text x="440" y="109" font-family="Verdana" font-size="7pt" fill="#000000" text-anchor="end" display="none" transform="rotate(270,440,109)" >2</text><text x="436" y="101" font-family="Verdana" font-size="7pt" fill="#000000" text-anchor="start" display="none" transform="rotate(270,436,101)" >2</text><circle cx="440" cy="82" r="3" stroke="#000000" fill="none" stroke-width="1" display="none" /><path d="M 437 85 L 440 88 L 443 85" fill="none" stroke="#000000" stroke-width="1"  display="none" /></g><g c_partid="part_pin" c_etype="pinpart"  c_show="show"  c_elec="0" c_spicepin="1" c_origin="440,135" id="gge445" c_rotation="270"><circle c_pindot="true" class="pindot" cx="440" cy="135" r="2" fill="#4F4F4F" stroke="none" /><path d="M 440 125 v 10" fill="none" stroke="#000000" stroke-width="1"/><text x="440" y="121" font-family="Verdana" font-size="7pt" fill="#000000" text-anchor="start" display="none" transform="rotate(270,440,121)" >1</text><text x="436" y="129" font-family="Verdana" font-size="7pt" fill="#000000" text-anchor="end" display="none" transform="rotate(270,436,129)" >1</text><circle cx="440" cy="148" r="3" stroke="#000000" fill="none" stroke-width="1" display="none" /><path d="M 443 145 L 440 142 L 437 145" fill="none" stroke="#000000" stroke-width="1"  display="none" /></g></g><polyline c_etype="wire" c_shapetype="line" points="440 135 425 135 425 85" stroke="#000000" id="gge1495" stroke-width="1"   fill="none" stroke-linecap="round" /><polyline c_etype="wire" c_shapetype="line" points="440 95 440 75" stroke="#000000" id="gge1501" stroke-width="1"   fill="none" stroke-linecap="round" /><g c_partid="part_netLabel_netPort" c_etype="pinpart" c_origin="470,70" id="gge1504" c_shapetype="group" c_rotation="180"><circle c_pindot="true" class="pindot" cx="470" cy="70" r="2" fill="#4F4F4F" stroke="none" /><text x="491.25" y="72.14" font-family="Arial" font-size="8pt" fill="#000000" text-anchor="start"  >CANH</text><polyline points="470 70 475 65 490 65 490 75 475 75 470 70" stroke="#000000" id="gge1507" stroke-width="1"   fill="none" stroke-linecap="round" /></g><g c_partid="part_netLabel_netPort" c_etype="pinpart" c_origin="470,90" id="gge1509" c_shapetype="group" c_rotation="180"><circle c_pindot="true" class="pindot" cx="470" cy="90" r="2" fill="#4F4F4F" stroke="none" /><text x="491.25" y="92.14" font-family="Arial" font-size="8pt" fill="#000000" text-anchor="start"  >CANL</text><polyline points="470 90 475 85 490 85 490 95 475 95 470 90" stroke="#000000" id="gge1512" stroke-width="1"   fill="none" stroke-linecap="round" /></g><polyline c_etype="wire" c_shapetype="line" points="395 75 455 75 455 70 470 70" stroke="#000000" id="gge1520" stroke-width="1"   fill="none" stroke-linecap="round" /><polyline c_etype="wire" c_shapetype="line" points="395 85 455 85 455 90 470 90" stroke="#000000" id="gge1525" stroke-width="1"   fill="none" stroke-linecap="round" /><g c_partid="part_netLabel_netPort" c_etype="pinpart" c_origin="140,70" id="gge2671" c_shapetype="group" c_rotation="0"><circle c_pindot="true" class="pindot" cx="140" cy="70" r="2" fill="#4F4F4F" stroke="none" /><text x="118.77" y="75.28" font-family="Arial" font-size="8pt" fill="#000000" text-anchor="end"  >MCU_CANTX</text><polyline points="140 70 135 75 120 75 120 65 135 65 140 70" stroke="#000000" id="gge2674" stroke-width="1"   fill="none" stroke-linecap="round" /></g><g c_partid="part_netLabel_netPort" c_etype="pinpart" c_origin="140,90" id="gge2676" c_shapetype="group" c_rotation="0"><circle c_pindot="true" class="pindot" cx="140" cy="90" r="2" fill="#4F4F4F" stroke="none" /><text x="118.77" y="95.28" font-family="Arial" font-size="8pt" fill="#000000" text-anchor="end"  >MCU_CANRX</text><polyline points="140 90 135 95 120 95 120 85 135 85 140 90" stroke="#000000" id="gge2679" stroke-width="1"   fill="none" stroke-linecap="round" /></g><g c_partid="part_no_connect_flag" c_origin="395,105" id="gge2682"  c_shapetype="group" c_etype="pinpart"><path d="M 391 101 L 399 109 M 399 101 L 391 109" stroke="#000000" stroke-width = "1" style="shape-rendering:auto;"/></g><g c_partid="part_no_connect_flag" c_origin="295,105" id="gge2684"  c_shapetype="group" c_etype="pinpart"><path d="M 291 101 L 299 109 M 299 101 L 291 109" stroke="#000000" stroke-width = "1" style="shape-rendering:auto;"/></g><g c_origin="245,160" c_para="package`AXIAL-0.3`nameAlias`Value(&#x3a9;)`BOM_Manufacturer Part`?`spicePre`R`spiceSymbolName`Res_AXIAL-0.3(1/8W)_EU`" c_partid="part_import_gge2755" id="gge2755" c_shapetype="group" c_etype="pinpart" c_rotation="90"><g c_partid="part_annotation" id="gge2757" ><text c_note="note_name" x="251" y="172.25" fill="#000000" font-family="Arial" font-size="7pt" font-weight="" font-style="" dominant-baseline="" text-anchor="start"  >120</text></g><g c_partid="part_annotation" id="gge2759" ><text c_note="note_pre" x="251.0078125" y="163.25" fill="#000000" font-family="Arial" font-size="7pt" font-weight="" font-style="" dominant-baseline="" text-anchor="start"  >R2</text></g><rect id="gge2761" x="241" y="150"   width="8" height="20" stroke="#000000" stroke-width="1" fill="none"   /><g c_partid="part_pin" c_etype="pinpart"  c_show="show"  c_elec="0" c_spicepin="2" c_origin="245,140" id="gge2762" c_rotation="90"><circle c_pindot="true" class="pindot" cx="245" cy="140" r="2" fill="#4F4F4F" stroke="none" /><path d="M 245 150 v -10" fill="none" stroke="#000000" stroke-width="1"/><text x="245" y="154" font-family="Verdana" font-size="7pt" fill="#000000" text-anchor="end" display="none" transform="rotate(270,245,154)" >2</text><text x="241" y="146" font-family="Verdana" font-size="7pt" fill="#000000" text-anchor="start" display="none" transform="rotate(270,241,146)" >2</text><circle cx="245" cy="127" r="3" stroke="#000000" fill="none" stroke-width="1" display="none" /><path d="M 242 130 L 245 133 L 248 130" fill="none" stroke="#000000" stroke-width="1"  display="none" /></g><g c_partid="part_pin" c_etype="pinpart"  c_show="show"  c_elec="0" c_spicepin="1" c_origin="245,180" id="gge2769" c_rotation="270"><circle c_pindot="true" class="pindot" cx="245" cy="180" r="2" fill="#4F4F4F" stroke="none" /><path d="M 245 170 v 10" fill="none" stroke="#000000" stroke-width="1"/><text x="245" y="166" font-family="Verdana" font-size="7pt" fill="#000000" text-anchor="start" display="none" transform="rotate(270,245,166)" >1</text><text x="241" y="174" font-family="Verdana" font-size="7pt" fill="#000000" text-anchor="end" display="none" transform="rotate(270,241,174)" >1</text><circle cx="245" cy="193" r="3" stroke="#000000" fill="none" stroke-width="1" display="none" /><path d="M 248 190 L 245 187 L 242 190" fill="none" stroke="#000000" stroke-width="1"  display="none" /></g></g><g c_origin="245,200" c_para="package`LED-3MM/2.54`BOM_Supplier Part`C99772`BOM_Supplier`LCSC`BOM_Manufacturer`EVERLIGHT`BOM_Manufacturer Part`204-10SURD/S530-A3`spicePre`L`" c_partid="part_import_gge2798" id="gge2798" c_shapetype="group" c_etype="pinpart" c_rotation="270"><g c_partid="part_annotation" id="gge2800" display="none"><text c_note="note_name" x="268" y="212.25" fill="#000000" font-family="Arial" font-size="7pt" font-weight="" font-style="" dominant-baseline="" text-anchor="start"  >LED-3MM</text></g><g c_partid="part_annotation" id="gge2802" ><text c_note="note_pre" x="255" y="198.578125" fill="#000000" font-family="Arial" font-size="7pt" font-weight="" font-style="" dominant-baseline="" text-anchor="start"  >LED1</text></g><polyline points="255 205 262 212" stroke="#000000" id="gge2804" stroke-width="1"   fill="none" stroke-linecap="round" /><polyline points="259 201 266 208" stroke="#000000" id="gge2805" stroke-width="1"   fill="none" stroke-linecap="round" /><polygon points="262 212 260 208 258 210" stroke="#000000" id="gge2806" stroke-width="1"   fill="none" stroke-linecap="round" /><polygon points="266 208 264 204 262 206" stroke="#000000" id="gge2807" stroke-width="1"   fill="none" stroke-linecap="round" /><g c_partid="part_pin" c_etype="pinpart"  c_show="show"  c_elec="0" c_spicepin="1" c_origin="245,180" id="gge2808" c_rotation="90"><circle c_pindot="true" class="pindot" cx="245" cy="180" r="2" fill="#4F4F4F" stroke="none" /><path d="M 245 180 v 15" fill="none" stroke="#000000" stroke-width="1"/><text x="248" y="198" font-family="Verdana" font-size="7pt" fill="#000000" text-anchor="end" display="none" transform="rotate(270,248,198)" >+</text><text x="244" y="189" font-family="Verdana" font-size="7pt" fill="#000000" text-anchor="start" display="none" transform="rotate(270,244,189)" >1</text><circle cx="245" cy="192" r="3" stroke="#000000" fill="none" stroke-width="1" display="none" /><path d="M 242 195 L 245 198 L 248 195" fill="none" stroke="#000000" stroke-width="1"  display="none" /></g><g c_partid="part_pin" c_etype="pinpart"  c_show="show"  c_elec="0" c_spicepin="2" c_origin="245,220" id="gge2815" c_rotation="270"><circle c_pindot="true" class="pindot" cx="245" cy="220" r="2" fill="#4F4F4F" stroke="none" /><path d="M 245 220 v -15" fill="none" stroke="#000000" stroke-width="1"/><text x="248" y="202" font-family="Verdana" font-size="7pt" fill="#000000" text-anchor="start" display="none" transform="rotate(270,248,202)" >-</text><text x="244" y="211" font-family="Verdana" font-size="7pt" fill="#000000" text-anchor="end" display="none" transform="rotate(270,244,211)" >2</text><circle cx="245" cy="208" r="3" stroke="#000000" fill="none" stroke-width="1" display="none" /><path d="M 248 205 L 245 202 L 242 205" fill="none" stroke="#000000" stroke-width="1"  display="none" /></g><path d="M 239 195 L 245 205 L 252 195 Z " id="gge2822"  stroke="#000000" stroke-width="1"  fill="none" /><polyline points="238 205 252 205" stroke="#000000" id="gge2823" stroke-width="1"   fill="none" stroke-linecap="round" /></g><g c_origin="180,200" c_para="package`LED-3MM/2.54`BOM_Supplier Part`C99772`BOM_Supplier`LCSC`BOM_Manufacturer`EVERLIGHT`BOM_Manufacturer Part`204-10SURD/S530-A3`spicePre`L`" c_partid="part_import_gge2865" id="gge2865" c_shapetype="group" c_etype="pinpart" c_rotation="270"><g c_partid="part_annotation" id="gge2867" display="none"><text c_note="note_name" x="203" y="212.25" fill="#000000" font-family="Arial" font-size="7pt" font-weight="" font-style="" dominant-baseline="" text-anchor="start"  >LED-3MM</text></g><g c_partid="part_annotation" id="gge2869" ><text c_note="note_pre" x="190" y="198.578125" fill="#000000" font-family="Arial" font-size="7pt" font-weight="" font-style="" dominant-baseline="" text-anchor="start"  >LED2</text></g><polyline points="190 205 197 212" stroke="#000000" id="gge2871" stroke-width="1"   fill="none" stroke-linecap="round" /><polyline points="194 201 201 208" stroke="#000000" id="gge2872" stroke-width="1"   fill="none" stroke-linecap="round" /><polygon points="197 212 195 208 193 210" stroke="#000000" id="gge2873" stroke-width="1"   fill="none" stroke-linecap="round" /><polygon points="201 208 199 204 197 206" stroke="#000000" id="gge2874" stroke-width="1"   fill="none" stroke-linecap="round" /><g c_partid="part_pin" c_etype="pinpart"  c_show="show"  c_elec="0" c_spicepin="1" c_origin="180,180" id="gge2875" c_rotation="90"><circle c_pindot="true" class="pindot" cx="180" cy="180" r="2" fill="#4F4F4F" stroke="none" /><path d="M 180 180 v 15" fill="none" stroke="#000000" stroke-width="1"/><text x="183" y="198" font-family="Verdana" font-size="7pt" fill="#000000" text-anchor="end" display="none" transform="rotate(270,183,198)" >+</text><text x="179" y="189" font-family="Verdana" font-size="7pt" fill="#000000" text-anchor="start" display="none" transform="rotate(270,179,189)" >1</text><circle cx="180" cy="192" r="3" stroke="#000000" fill="none" stroke-width="1" display="none" /><path d="M 177 195 L 180 198 L 183 195" fill="none" stroke="#000000" stroke-width="1"  display="none" /></g><g c_partid="part_pin" c_etype="pinpart"  c_show="show"  c_elec="0" c_spicepin="2" c_origin="180,220" id="gge2882" c_rotation="270"><circle c_pindot="true" class="pindot" cx="180" cy="220" r="2" fill="#4F4F4F" stroke="none" /><path d="M 180 220 v -15" fill="none" stroke="#000000" stroke-width="1"/><text x="183" y="202" font-family="Verdana" font-size="7pt" fill="#000000" text-anchor="start" display="none" transform="rotate(270,183,202)" >-</text><text x="179" y="211" font-family="Verdana" font-size="7pt" fill="#000000" text-anchor="end" display="none" transform="rotate(270,179,211)" >2</text><circle cx="180" cy="208" r="3" stroke="#000000" fill="none" stroke-width="1" display="none" /><path d="M 183 205 L 180 202 L 177 205" fill="none" stroke="#000000" stroke-width="1"  display="none" /></g><path d="M 174 195 L 180 205 L 187 195 Z " id="gge2889"  stroke="#000000" stroke-width="1"  fill="none" /><polyline points="173 205 187 205" stroke="#000000" id="gge2890" stroke-width="1"   fill="none" stroke-linecap="round" /></g><g c_origin="180,160" c_para="package`AXIAL-0.3`nameAlias`Value(&#x3a9;)`BOM_Manufacturer Part`?`spicePre`R`spiceSymbolName`Res_AXIAL-0.3(1/8W)_EU`" c_partid="part_import_gge2896" id="gge2896" c_shapetype="group" c_etype="pinpart" c_rotation="90"><g c_partid="part_annotation" id="gge2898" ><text c_note="note_name" x="186" y="172.25" fill="#000000" font-family="Arial" font-size="7pt" font-weight="" font-style="" dominant-baseline="" text-anchor="start"  >120</text></g><g c_partid="part_annotation" id="gge2900" ><text c_note="note_pre" x="186.0078125" y="163.25" fill="#000000" font-family="Arial" font-size="7pt" font-weight="" font-style="" dominant-baseline="" text-anchor="start"  >R3</text></g><rect id="gge2902" x="176" y="150"   width="8" height="20" stroke="#000000" stroke-width="1" fill="none"   /><g c_partid="part_pin" c_etype="pinpart"  c_show="show"  c_elec="0" c_spicepin="2" c_origin="180,140" id="gge2903" c_rotation="90"><circle c_pindot="true" class="pindot" cx="180" cy="140" r="2" fill="#4F4F4F" stroke="none" /><path d="M 180 150 v -10" fill="none" stroke="#000000" stroke-width="1"/><text x="180" y="154" font-family="Verdana" font-size="7pt" fill="#000000" text-anchor="end" display="none" transform="rotate(270,180,154)" >2</text><text x="176" y="146" font-family="Verdana" font-size="7pt" fill="#000000" text-anchor="start" display="none" transform="rotate(270,176,146)" >2</text><circle cx="180" cy="127" r="3" stroke="#000000" fill="none" stroke-width="1" display="none" /><path d="M 177 130 L 180 133 L 183 130" fill="none" stroke="#000000" stroke-width="1"  display="none" /></g><g c_partid="part_pin" c_etype="pinpart"  c_show="show"  c_elec="0" c_spicepin="1" c_origin="180,180" id="gge2910" c_rotation="270"><circle c_pindot="true" class="pindot" cx="180" cy="180" r="2" fill="#4F4F4F" stroke="none" /><path d="M 180 170 v 10" fill="none" stroke="#000000" stroke-width="1"/><text x="180" y="166" font-family="Verdana" font-size="7pt" fill="#000000" text-anchor="start" display="none" transform="rotate(270,180,166)" >1</text><text x="176" y="174" font-family="Verdana" font-size="7pt" fill="#000000" text-anchor="end" display="none" transform="rotate(270,176,174)" >1</text><circle cx="180" cy="193" r="3" stroke="#000000" fill="none" stroke-width="1" display="none" /><path d="M 183 190 L 180 187 L 177 190" fill="none" stroke="#000000" stroke-width="1"  display="none" /></g></g><polyline c_etype="wire" c_shapetype="line" points="245 140 245 125 285 125" stroke="#000000" id="gge2933" stroke-width="1"   fill="none" stroke-linecap="round" /><polyline c_etype="wire" c_shapetype="line" points="245 220 230 220 230 85" stroke="#000000" id="gge2940" stroke-width="1"   fill="none" stroke-linecap="round" /><polyline c_etype="wire" c_shapetype="line" points="180 140 180 125 245 125" stroke="#000000" id="gge2942" stroke-width="1"   fill="none" stroke-linecap="round" /><polyline c_etype="wire" c_shapetype="line" points="180 220 165 220 165 85" stroke="#000000" id="gge2944" stroke-width="1"   fill="none" stroke-linecap="round" /><polyline c_etype="wire" c_shapetype="line" points="295 85 150 85 150 90 140 90" stroke="#000000" id="gge2946" stroke-width="1"   fill="none" stroke-linecap="round" /><polyline c_etype="wire" c_shapetype="line" points="295 75 150 75 150 70 140 70" stroke="#000000" id="gge2947" stroke-width="1"   fill="none" stroke-linecap="round" /><g c_partid="part_junction" c_etype="pinpart" c_origin="245,125" id="gge2943" c_shapetype="group"><circle c_pindot="true" class="pindot" cx="245" cy="125" r="2" fill="#4F4F4F" stroke="none"/><circle cx="245" cy="125" r="2.5" fill="#000000" stroke-width="1"/></g><g c_partid="part_junction" c_etype="pinpart" c_origin="425,85" id="gge1526" c_shapetype="group"><circle c_pindot="true" class="pindot" cx="425" cy="85" r="2" fill="#4F4F4F" stroke="none"/><circle cx="425" cy="85" r="2.5" fill="#000000" stroke-width="1"/></g><g c_partid="part_junction" c_etype="pinpart" c_origin="440,75" id="gge1521" c_shapetype="group"><circle c_pindot="true" class="pindot" cx="440" cy="75" r="2" fill="#4F4F4F" stroke="none"/><circle cx="440" cy="75" r="2.5" fill="#000000" stroke-width="1"/></g><g c_partid="part_junction" c_etype="pinpart" c_origin="285,125" id="gge2934" c_shapetype="group"><circle c_pindot="true" class="pindot" cx="285" cy="125" r="2" fill="#4F4F4F" stroke="none"/><circle cx="285" cy="125" r="2.5" fill="#000000" stroke-width="1"/></g><g c_partid="part_junction" c_etype="pinpart" c_origin="230,85" id="gge2952" c_shapetype="group"><circle c_pindot="true" class="pindot" cx="230" cy="85" r="2" fill="#4F4F4F" stroke="none"/><circle cx="230" cy="85" r="2.5" fill="#000000" stroke-width="1"/></g><g c_partid="part_junction" c_etype="pinpart" c_origin="165,85" id="gge2953" c_shapetype="group"><circle c_pindot="true" class="pindot" cx="165" cy="85" r="2" fill="#4F4F4F" stroke="none"/><circle cx="165" cy="85" r="2.5" fill="#000000" stroke-width="1"/></g></g></svg>